<svg width="500" height="500" viewBox="0 0 500 500" fill="none" xmlns="http://www.w3.org/2000/svg">
<g clip-path="url(#clip0_15_137)">
<path d="M350 0H150C67.1573 0 0 67.1573 0 150V350C0 432.843 67.1573 500 150 500H350C432.843 500 500 432.843 500 350V150C500 67.1573 432.843 0 350 0Z" fill="#00639B"/>
<path d="M250 421.429C226.364 421.429 204.029 417.014 182.986 408.186C162.207 399.093 144.029 386.886 128.443 371.557C113.114 355.979 100.907 337.793 91.8214 317.014C82.9786 295.971 78.5714 273.636 78.5714 250C78.5714 226.107 82.9857 203.764 91.8143 182.986C100.907 162.207 113.114 144.157 128.443 128.829C144.029 113.25 162.207 101.043 182.986 92.2071C204.029 83.1143 226.364 78.5714 250 78.5714C273.9 78.5714 296.236 83.1143 317.014 92.2143C337.793 101.043 355.843 113.25 371.171 128.829C386.757 144.157 398.957 162.207 407.793 182.986C416.886 203.771 421.436 226.107 421.436 250C421.436 273.643 416.886 295.971 407.793 317.014C398.964 337.793 386.757 355.979 371.171 371.557C355.843 386.886 337.793 399.093 317.014 408.186C296.229 417.014 273.9 421.429 250 421.429ZM140.907 337.664V162.336C130.966 174.415 123.191 188.125 117.929 202.857C112.471 217.664 109.75 233.379 109.75 250C109.75 266.621 112.471 282.464 117.929 297.536C123.256 312.12 131.03 325.69 140.914 337.664H140.907ZM162.336 140.907H338.05C325.973 130.964 312.266 123.187 297.536 117.921C282.464 112.464 266.621 109.743 250 109.743C233.379 109.743 217.536 112.464 202.471 117.921C187.885 123.249 174.312 131.022 162.336 140.907ZM250 288.964L308.829 172.079H191.557L250 288.964ZM265.586 327.921H327.921V203.25L265.586 327.921ZM172.079 327.921H234.414L172.079 203.25V327.921ZM250 390.257C266.614 390.257 282.457 387.536 297.529 382.079C312.593 376.621 326.1 368.964 338.043 359.093H162.329C174.305 368.978 187.878 376.751 202.464 382.079C217.529 387.536 233.371 390.257 249.993 390.257H250ZM359.086 337.664C368.97 325.69 376.743 312.12 382.071 297.536C387.529 282.464 390.25 266.621 390.25 250C390.25 233.379 387.529 217.664 382.071 202.857C376.614 187.786 368.957 174.286 359.086 162.336V337.664Z" fill="#FBF7FF"/>
</g>
<defs>
<clipPath id="clip0_15_137">
<rect width="500" height="500" fill="white"/>
</clipPath>
</defs>
</svg>
